<?xml version="1.0" encoding="utf-8"?>
<!-- Generator: Adobe Illustrator 19.0.0, SVG Export Plug-In . SVG Version: 6.00 Build 0)  -->
<svg version="1.1" id="Ñëîé_1" xmlns="http://www.w3.org/2000/svg" xmlns:xlink="http://www.w3.org/1999/xlink" x="0px" y="0px"
	 viewBox="0 0 158 229.6" style="enable-background:new 0 0 158 229.6;" xml:space="preserve">
<style type="text/css">
	.st0{display:none;fill:#310216;}
	.st1{display:none;fill:url(#SVGID_1_);}
	.st2{fill:#F5F5F5;}
	.st3{fill:url(#SVGID_2_);}
	.st4{fill:url(#SVGID_3_);}
	.st5{display:none;}
	.st6{display:inline;}
	.st7{fill:#AFAFAF;}
	.st8{fill:#BCBCBC;}
	.st9{display:inline;fill:#FFFFFF;}
</style>
<g>
	<circle class="st0" cx="79" cy="77.2" r="131.4"/>
	<linearGradient id="SVGID_1_" gradientUnits="userSpaceOnUse" x1="-137.6473" y1="-174.7507" x2="169.7248" y2="182.6906">
		<stop  offset="0" style="stop-color:#FFFFFF"/>
		<stop  offset="1" style="stop-color:#000000"/>
	</linearGradient>
	<path class="st1" d="M210.4,77.2c0,69.6-54.1,126.6-122.6,131.1c-2.9,0.2-5.9,0.3-8.9,0.3c-3,0-6-0.1-8.9-0.3
		C1.7,203.7-52.4,146.8-52.4,77.2C-52.4,4.6,6.4-54.2,79-54.2S210.4,4.6,210.4,77.2z"/>
	<path class="st2" d="M157.9,90.8c-1.6,24.7-14,47.6-34,62.4l-31.7,23.4c0,0-3.8,15.8-4.3,31.7c-2.9,0.2-5.9,0.3-8.9,0.3
		c-3,0-6-0.1-8.9-0.3c-0.5-15.9-4.3-31.7-4.3-31.7l-32.3-23.4c-0.8-0.6-1.5-1.1-2.3-1.7c-23.1-18.3-34.3-47.8-30.5-77L10.4,0H147
		l10.6,81.3C157.9,84.4,158.1,87.6,157.9,90.8z"/>
	<linearGradient id="SVGID_2_" gradientUnits="userSpaceOnUse" x1="149.1149" y1="-253.2778" x2="65.2986" y2="158.6482">
		<stop  offset="0" style="stop-color:#2E2E2E"/>
		<stop  offset="1" style="stop-color:#B20000"/>
	</linearGradient>
	<path class="st3" d="M142.7,76.9c-7.6-8.1-17.2-15-29-16.4c-20.1-2.5-31,12.9-57.7,18.1c-15.9,3.1-30.3,1.2-41.3-1.6
		c-0.2,1.9-0.5,3.8-0.7,5.7c-3.2,24.2,6.2,48.7,25.3,63.9c0.6,0.5,19.2,14.2,19.2,14.2c5.8,4.3,12.9,6.6,20.2,6.6
		c7.3,0,14.3-2.3,20.2-6.6l17.4-12.8c16.7-12.3,26.9-31.3,28.2-51.8c0.2-2.6,0-5.3-0.3-7.9L142.7,76.9z"/>
	<linearGradient id="SVGID_3_" gradientUnits="userSpaceOnUse" x1="67.5406" y1="70.0573" x2="107.1793" y2="152.1163">
		<stop  offset="0" style="stop-color:#9C0000"/>
		<stop  offset="1" style="stop-color:#2B0000"/>
	</linearGradient>
	<path class="st4" d="M15.3,76.9c7.6-8.1,17.2-15,29-16.4c20.1-2.5,31,12.9,57.7,18.1c15.9,3.1,30.3,1.2,41.3-1.6
		c0.2,1.9,0.5,3.8,0.7,5.7c3.2,24.2-6.2,48.7-25.3,63.9c-0.6,0.5-19.2,14.2-19.2,14.2c-5.8,4.3-12.9,6.6-20.2,6.6
		c-7.3,0-14.3-2.3-20.2-6.6l-17.4-12.8c-16.7-12.3-26.9-31.3-28.2-51.8c-0.2-2.6,0-5.3,0.3-7.9L15.3,76.9z"/>
</g>
<g class="st5">
	<g class="st6">
		<path class="st7" d="M41.6,301.6l-5.3,20.2h-5.1l-3.4-13c-0.2-0.7-0.3-1.4-0.3-2.3h-0.1c-0.1,0.9-0.2,1.7-0.4,2.3l-3.4,13h-5.3
			l-5.3-20.2h5l2.9,13.5c0.1,0.6,0.2,1.3,0.3,2.3h0.1c0-0.7,0.2-1.5,0.4-2.4l3.7-13.4h4.9l3.3,13.6c0.1,0.5,0.2,1.2,0.3,2.2h0.1
			c0-0.7,0.1-1.5,0.3-2.3l2.8-13.5H41.6z"/>
		<path class="st7" d="M45.5,305.1c-0.8,0-1.4-0.2-1.8-0.7c-0.5-0.4-0.7-1-0.7-1.6c0-0.7,0.2-1.2,0.7-1.6c0.5-0.4,1.1-0.6,1.8-0.6
			c0.8,0,1.4,0.2,1.9,0.6c0.5,0.4,0.7,1,0.7,1.6c0,0.7-0.2,1.2-0.7,1.7C46.9,304.9,46.3,305.1,45.5,305.1z M47.7,321.8h-4.5v-14.5
			h4.5V321.8z"/>
		<path class="st7" d="M64.9,321.8h-4.4v-8c0-2.2-0.8-3.4-2.4-3.4c-0.8,0-1.4,0.3-1.9,0.9c-0.5,0.6-0.7,1.3-0.7,2.3v8.2H51v-14.5
			h4.5v2.3h0.1c1.1-1.8,2.6-2.6,4.6-2.6c3.2,0,4.8,2,4.8,6V321.8z"/>
		<path class="st7" d="M81,315.9h-9.4c0.2,2.1,1.5,3.1,4,3.1c1.6,0,3-0.4,4.2-1.1v3.2c-1.3,0.7-3.1,1.1-5.2,1.1
			c-2.3,0-4.1-0.6-5.4-1.9c-1.3-1.3-1.9-3.1-1.9-5.4c0-2.4,0.7-4.3,2.1-5.7c1.4-1.4,3.1-2.1,5.1-2.1c2.1,0,3.7,0.6,4.9,1.9
			c1.2,1.3,1.7,3,1.7,5.1V315.9z M76.8,313.2c0-2.1-0.8-3.1-2.5-3.1c-0.7,0-1.3,0.3-1.9,0.9c-0.5,0.6-0.8,1.3-1,2.2H76.8z"/>
		<path class="st7" d="M93.4,321.8h-2.3v-21.4h2.3V321.8z"/>
		<path class="st7" d="M103.6,322.2c-2.1,0-3.8-0.7-5.1-2c-1.3-1.4-1.9-3.1-1.9-5.4c0-2.4,0.7-4.3,2-5.7c1.3-1.4,3.1-2,5.4-2
			c2.2,0,3.8,0.7,5,2c1.2,1.3,1.8,3.2,1.8,5.5c0,2.3-0.7,4.2-2,5.5C107.6,321.5,105.8,322.2,103.6,322.2z M103.8,309
			c-1.5,0-2.7,0.5-3.5,1.5c-0.9,1-1.3,2.4-1.3,4.2c0,1.7,0.4,3.1,1.3,4.1c0.9,1,2,1.5,3.5,1.5c1.5,0,2.6-0.5,3.5-1.5
			c0.8-1,1.2-2.3,1.2-4.1c0-1.8-0.4-3.2-1.2-4.2C106.5,309.5,105.3,309,103.8,309z"/>
		<path class="st7" d="M126.4,320.7c0,5.3-2.5,8-7.6,8c-1.8,0-3.3-0.3-4.7-1v-2.3c1.6,0.9,3.2,1.4,4.7,1.4c3.6,0,5.3-1.9,5.3-5.7
			v-1.6H124c-1.1,1.8-2.8,2.8-5,2.8c-1.8,0-3.2-0.6-4.3-1.9c-1.1-1.3-1.6-3-1.6-5.2c0-2.5,0.6-4.4,1.8-5.9c1.2-1.4,2.8-2.2,4.8-2.2
			c1.9,0,3.4,0.8,4.3,2.3h0.1v-2h2.3V320.7z M124.1,315.3v-2.1c0-1.1-0.4-2.1-1.2-3c-0.8-0.8-1.7-1.2-2.9-1.2
			c-1.4,0-2.5,0.5-3.4,1.6s-1.2,2.5-1.2,4.4c0,1.6,0.4,2.9,1.2,3.9c0.8,1,1.8,1.4,3.1,1.4c1.3,0,2.4-0.5,3.2-1.4
			C123.7,317.9,124.1,316.8,124.1,315.3z"/>
		<path class="st7" d="M136.6,322.2c-2.1,0-3.8-0.7-5.1-2c-1.3-1.4-1.9-3.1-1.9-5.4c0-2.4,0.7-4.3,2-5.7c1.3-1.4,3.1-2,5.4-2
			c2.2,0,3.8,0.7,5,2c1.2,1.3,1.8,3.2,1.8,5.5c0,2.3-0.7,4.2-2,5.5C140.6,321.5,138.8,322.2,136.6,322.2z M136.8,309
			c-1.5,0-2.7,0.5-3.5,1.5c-0.9,1-1.3,2.4-1.3,4.2c0,1.7,0.4,3.1,1.3,4.1c0.9,1,2,1.5,3.5,1.5c1.5,0,2.6-0.5,3.5-1.5
			c0.8-1,1.2-2.3,1.2-4.1c0-1.8-0.4-3.2-1.2-4.2C139.4,309.5,138.3,309,136.8,309z"/>
	</g>
	<g class="st6">
		<path class="st8" d="M41,343.2C41,343.2,41,343.2,41,343.2c0,0.1,0,0.1,0,0.2c0,0,0,0.1,0,0.1c0,0,0,0.1,0,0.1l-2.7,7.6
			c0,0.1-0.1,0.1-0.1,0.2c0,0-0.1,0.1-0.2,0.1c-0.1,0-0.2,0-0.3,0c-0.1,0-0.3,0-0.4,0c-0.2,0-0.3,0-0.4,0c-0.1,0-0.2,0-0.3-0.1
			c-0.1,0-0.1-0.1-0.2-0.1c0,0-0.1-0.1-0.1-0.2l-2.7-7.6c0-0.1,0-0.1-0.1-0.2c0-0.1,0-0.1,0-0.1c0,0,0,0,0-0.1c0,0,0-0.1,0-0.1
			c0,0,0.1-0.1,0.1-0.1c0.1,0,0.1,0,0.2,0c0.1,0,0.2,0,0.3,0c0.2,0,0.3,0,0.4,0c0.1,0,0.2,0,0.2,0c0.1,0,0.1,0.1,0.1,0.1
			c0,0,0.1,0.1,0.1,0.1l2.3,6.6l0,0.1l0-0.1l2.2-6.6c0-0.1,0-0.1,0.1-0.1c0,0,0.1-0.1,0.1-0.1c0.1,0,0.1,0,0.2,0c0.1,0,0.2,0,0.4,0
			c0.1,0,0.3,0,0.3,0c0.1,0,0.2,0,0.2,0c0.1,0,0.1,0.1,0.1,0.1C41,343.1,41,343.1,41,343.2z"/>
		<path class="st8" d="M49.1,346.9c0,0.2-0.1,0.4-0.2,0.5c-0.1,0.1-0.2,0.1-0.4,0.1h-5.3c0,0.4,0,0.8,0.1,1.2
			c0.1,0.4,0.2,0.7,0.4,0.9c0.2,0.3,0.5,0.5,0.8,0.6c0.3,0.1,0.7,0.2,1.2,0.2c0.4,0,0.7,0,1-0.1c0.3-0.1,0.6-0.1,0.8-0.2
			c0.2-0.1,0.4-0.1,0.5-0.2c0.1-0.1,0.2-0.1,0.3-0.1c0,0,0.1,0,0.1,0c0,0,0.1,0.1,0.1,0.1c0,0,0,0.1,0,0.2c0,0.1,0,0.2,0,0.3
			c0,0.1,0,0.1,0,0.2c0,0.1,0,0.1,0,0.2c0,0,0,0.1,0,0.1c0,0,0,0.1-0.1,0.1c0,0-0.1,0.1-0.3,0.2c-0.2,0.1-0.4,0.1-0.6,0.2
			c-0.3,0.1-0.6,0.1-0.9,0.2c-0.3,0.1-0.7,0.1-1.1,0.1c-0.7,0-1.2-0.1-1.7-0.3c-0.5-0.2-0.9-0.5-1.3-0.8c-0.3-0.4-0.6-0.8-0.8-1.4
			c-0.2-0.5-0.3-1.2-0.3-1.9c0-0.7,0.1-1.3,0.3-1.9c0.2-0.6,0.4-1,0.8-1.4c0.3-0.4,0.7-0.7,1.2-0.9c0.5-0.2,1-0.3,1.6-0.3
			c0.6,0,1.2,0.1,1.6,0.3c0.4,0.2,0.8,0.5,1.1,0.8c0.3,0.3,0.5,0.7,0.6,1.2c0.1,0.5,0.2,1,0.2,1.5V346.9z M47.6,346.4
			c0-0.8-0.2-1.4-0.5-1.8c-0.4-0.4-0.9-0.7-1.6-0.7c-0.4,0-0.7,0.1-1,0.2c-0.3,0.1-0.5,0.3-0.7,0.5c-0.2,0.2-0.3,0.5-0.4,0.8
			c-0.1,0.3-0.2,0.6-0.2,0.9H47.6z"/>
		<path class="st8" d="M56.8,350c0,0.1,0,0.2,0,0.3c0,0.1,0,0.1,0,0.2c0,0.1,0,0.1-0.1,0.1c0,0-0.1,0.1-0.1,0.2
			c-0.1,0.1-0.2,0.2-0.4,0.3c-0.2,0.1-0.4,0.2-0.6,0.3c-0.2,0.1-0.5,0.2-0.7,0.2c-0.3,0.1-0.5,0.1-0.8,0.1c-0.6,0-1.1-0.1-1.5-0.3
			c-0.4-0.2-0.8-0.5-1.1-0.8c-0.3-0.4-0.5-0.8-0.7-1.3c-0.2-0.5-0.2-1.1-0.2-1.8c0-0.8,0.1-1.5,0.3-2c0.2-0.6,0.5-1,0.8-1.4
			c0.3-0.4,0.7-0.6,1.2-0.8c0.5-0.2,0.9-0.3,1.5-0.3c0.3,0,0.5,0,0.7,0.1c0.2,0,0.5,0.1,0.7,0.2c0.2,0.1,0.4,0.2,0.5,0.3
			c0.2,0.1,0.3,0.2,0.3,0.3c0.1,0.1,0.1,0.1,0.1,0.2c0,0,0,0.1,0.1,0.1c0,0.1,0,0.1,0,0.2c0,0.1,0,0.2,0,0.3c0,0.2,0,0.4-0.1,0.5
			c-0.1,0.1-0.1,0.1-0.2,0.1c-0.1,0-0.2,0-0.3-0.1c-0.1-0.1-0.3-0.2-0.4-0.3c-0.2-0.1-0.4-0.2-0.6-0.3c-0.3-0.1-0.6-0.1-0.9-0.1
			c-0.7,0-1.3,0.3-1.6,0.8c-0.4,0.5-0.6,1.3-0.6,2.4c0,0.5,0,1,0.1,1.4c0.1,0.4,0.2,0.7,0.4,1c0.2,0.3,0.4,0.5,0.7,0.6
			c0.3,0.1,0.6,0.2,1,0.2c0.3,0,0.6-0.1,0.9-0.2c0.3-0.1,0.5-0.2,0.7-0.4c0.2-0.1,0.3-0.2,0.5-0.3c0.1-0.1,0.2-0.2,0.3-0.2
			c0,0,0.1,0,0.1,0c0,0,0.1,0.1,0.1,0.1c0,0.1,0,0.1,0,0.2C56.8,349.8,56.8,349.9,56.8,350z"/>
		<path class="st8" d="M62.6,350.6c0,0.2,0,0.3,0,0.4c0,0.1-0.1,0.2-0.1,0.2c0,0-0.1,0.1-0.2,0.1c-0.1,0-0.2,0.1-0.3,0.1
			c-0.1,0-0.3,0-0.4,0.1c-0.1,0-0.3,0-0.4,0c-0.4,0-0.8-0.1-1.1-0.2c-0.3-0.1-0.5-0.3-0.7-0.5c-0.2-0.2-0.3-0.5-0.4-0.8
			c-0.1-0.3-0.1-0.7-0.1-1.2v-4.7h-1.1c-0.1,0-0.2,0-0.2-0.1c-0.1-0.1-0.1-0.3-0.1-0.5c0-0.1,0-0.2,0-0.3c0-0.1,0-0.1,0.1-0.2
			c0,0,0.1-0.1,0.1-0.1c0,0,0.1,0,0.1,0h1.1v-1.9c0,0,0-0.1,0-0.1c0,0,0.1-0.1,0.1-0.1c0.1,0,0.1,0,0.2-0.1c0.1,0,0.2,0,0.4,0
			c0.1,0,0.3,0,0.4,0c0.1,0,0.2,0,0.2,0.1c0.1,0,0.1,0.1,0.1,0.1c0,0,0,0.1,0,0.1v1.9h2.1c0,0,0.1,0,0.1,0c0,0,0.1,0.1,0.1,0.1
			c0,0.1,0,0.1,0.1,0.2c0,0.1,0,0.2,0,0.3c0,0.2,0,0.4-0.1,0.5c-0.1,0.1-0.1,0.1-0.2,0.1h-2.1v4.5c0,0.6,0.1,1,0.2,1.3
			c0.2,0.3,0.5,0.4,0.9,0.4c0.1,0,0.3,0,0.4,0c0.1,0,0.2-0.1,0.3-0.1c0.1,0,0.2-0.1,0.2-0.1c0.1,0,0.1,0,0.2,0c0,0,0.1,0,0.1,0
			c0,0,0,0,0.1,0.1c0,0,0,0.1,0,0.2S62.6,350.5,62.6,350.6z"/>
		<path class="st8" d="M71.5,347.1c0,0.7-0.1,1.3-0.3,1.8c-0.2,0.6-0.4,1-0.8,1.4c-0.3,0.4-0.8,0.7-1.3,0.9
			c-0.5,0.2-1.1,0.3-1.8,0.3c-0.7,0-1.2-0.1-1.7-0.3c-0.5-0.2-0.9-0.5-1.2-0.9c-0.3-0.4-0.6-0.8-0.7-1.4c-0.2-0.5-0.2-1.1-0.2-1.8
			c0-0.7,0.1-1.3,0.3-1.8c0.2-0.5,0.4-1,0.8-1.4c0.3-0.4,0.8-0.7,1.3-0.9c0.5-0.2,1.1-0.3,1.8-0.3c0.7,0,1.2,0.1,1.7,0.3
			c0.5,0.2,0.9,0.5,1.2,0.9c0.3,0.4,0.6,0.8,0.7,1.4C71.4,345.9,71.5,346.5,71.5,347.1z M70,347.2c0-0.4,0-0.8-0.1-1.2
			c-0.1-0.4-0.2-0.7-0.4-1c-0.2-0.3-0.4-0.5-0.8-0.7c-0.3-0.2-0.7-0.3-1.2-0.3c-0.4,0-0.8,0.1-1.1,0.2c-0.3,0.2-0.6,0.4-0.8,0.7
			c-0.2,0.3-0.4,0.6-0.5,1c-0.1,0.4-0.1,0.8-0.1,1.3c0,0.4,0,0.9,0.1,1.2c0.1,0.4,0.2,0.7,0.4,1c0.2,0.3,0.4,0.5,0.8,0.7
			c0.3,0.2,0.7,0.3,1.2,0.3c0.4,0,0.8-0.1,1.1-0.2c0.3-0.2,0.6-0.4,0.8-0.7c0.2-0.3,0.4-0.6,0.5-1C69.9,348.1,70,347.7,70,347.2z"/>
		<path class="st8" d="M78.1,343.7c0,0.1,0,0.2,0,0.3c0,0.1,0,0.2,0,0.2c0,0.1,0,0.1-0.1,0.1c0,0-0.1,0-0.1,0c0,0-0.1,0-0.2,0
			c-0.1,0-0.1-0.1-0.2-0.1c-0.1,0-0.2-0.1-0.3-0.1c-0.1,0-0.2,0-0.3,0c-0.1,0-0.3,0-0.4,0.1c-0.1,0.1-0.3,0.2-0.5,0.3
			c-0.2,0.1-0.3,0.3-0.5,0.5c-0.2,0.2-0.4,0.5-0.6,0.8v5.3c0,0,0,0.1,0,0.1c0,0-0.1,0.1-0.1,0.1c-0.1,0-0.1,0-0.2,0.1
			c-0.1,0-0.2,0-0.4,0c-0.1,0-0.3,0-0.4,0c-0.1,0-0.2,0-0.2-0.1c-0.1,0-0.1-0.1-0.1-0.1c0,0,0-0.1,0-0.1v-8c0,0,0-0.1,0-0.1
			c0,0,0.1-0.1,0.1-0.1c0.1,0,0.1,0,0.2-0.1c0.1,0,0.2,0,0.3,0c0.1,0,0.2,0,0.3,0c0.1,0,0.2,0,0.2,0.1c0,0,0.1,0.1,0.1,0.1
			c0,0,0,0.1,0,0.1v1.2c0.2-0.3,0.4-0.6,0.6-0.8c0.2-0.2,0.4-0.4,0.5-0.5c0.2-0.1,0.3-0.2,0.5-0.2c0.2,0,0.3-0.1,0.5-0.1
			c0.1,0,0.2,0,0.3,0c0.1,0,0.2,0,0.3,0c0.1,0,0.2,0.1,0.3,0.1c0.1,0,0.1,0.1,0.2,0.1c0,0,0.1,0.1,0.1,0.1c0,0,0,0.1,0,0.1
			c0,0,0,0.1,0,0.2C78.1,343.5,78.1,343.6,78.1,343.7z"/>
		<path class="st8" d="M90.1,346.9c0,0.2-0.1,0.4-0.2,0.5c-0.1,0.1-0.2,0.1-0.4,0.1h-5.3c0,0.4,0,0.8,0.1,1.2
			c0.1,0.4,0.2,0.7,0.4,0.9c0.2,0.3,0.5,0.5,0.8,0.6c0.3,0.1,0.7,0.2,1.2,0.2c0.4,0,0.7,0,1-0.1c0.3-0.1,0.6-0.1,0.8-0.2
			c0.2-0.1,0.4-0.1,0.5-0.2c0.1-0.1,0.2-0.1,0.3-0.1c0,0,0.1,0,0.1,0c0,0,0.1,0.1,0.1,0.1c0,0,0,0.1,0,0.2c0,0.1,0,0.2,0,0.3
			c0,0.1,0,0.1,0,0.2c0,0.1,0,0.1,0,0.2c0,0,0,0.1,0,0.1c0,0,0,0.1-0.1,0.1c0,0-0.1,0.1-0.3,0.2c-0.2,0.1-0.4,0.1-0.6,0.2
			c-0.3,0.1-0.6,0.1-0.9,0.2c-0.3,0.1-0.7,0.1-1.1,0.1c-0.7,0-1.2-0.1-1.7-0.3c-0.5-0.2-0.9-0.5-1.3-0.8c-0.3-0.4-0.6-0.8-0.8-1.4
			c-0.2-0.5-0.3-1.2-0.3-1.9c0-0.7,0.1-1.3,0.3-1.9c0.2-0.6,0.4-1,0.8-1.4c0.3-0.4,0.7-0.7,1.2-0.9c0.5-0.2,1-0.3,1.6-0.3
			c0.6,0,1.2,0.1,1.6,0.3c0.4,0.2,0.8,0.5,1.1,0.8c0.3,0.3,0.5,0.7,0.6,1.2c0.1,0.5,0.2,1,0.2,1.5V346.9z M88.6,346.4
			c0-0.8-0.2-1.4-0.5-1.8c-0.4-0.4-0.9-0.7-1.6-0.7c-0.4,0-0.7,0.1-1,0.2c-0.3,0.1-0.5,0.3-0.7,0.5c-0.2,0.2-0.3,0.5-0.4,0.8
			c-0.1,0.3-0.2,0.6-0.2,0.9H88.6z"/>
		<path class="st8" d="M99.4,347.1c0,0.7-0.1,1.3-0.2,1.9c-0.2,0.6-0.4,1-0.7,1.4c-0.3,0.4-0.7,0.7-1.1,0.9
			c-0.4,0.2-0.9,0.3-1.5,0.3c-0.2,0-0.5,0-0.7-0.1c-0.2,0-0.4-0.1-0.6-0.2c-0.2-0.1-0.4-0.2-0.6-0.4c-0.2-0.2-0.4-0.3-0.6-0.5v4
			c0,0,0,0.1,0,0.1c0,0-0.1,0.1-0.1,0.1c-0.1,0-0.1,0-0.2,0.1c-0.1,0-0.2,0-0.4,0c-0.1,0-0.3,0-0.4,0c-0.1,0-0.2,0-0.2-0.1
			c-0.1,0-0.1-0.1-0.1-0.1c0,0,0-0.1,0-0.1v-11.2c0-0.1,0-0.1,0-0.1c0,0,0.1-0.1,0.1-0.1c0.1,0,0.1,0,0.2,0c0.1,0,0.2,0,0.3,0
			c0.1,0,0.2,0,0.3,0c0.1,0,0.1,0,0.2,0c0.1,0,0.1,0.1,0.1,0.1c0,0,0,0.1,0,0.1v1.1c0.2-0.3,0.5-0.5,0.7-0.7
			c0.2-0.2,0.5-0.3,0.7-0.5c0.2-0.1,0.5-0.2,0.7-0.3c0.2-0.1,0.5-0.1,0.8-0.1c0.6,0,1.1,0.1,1.5,0.3c0.4,0.2,0.7,0.5,1,0.9
			c0.3,0.4,0.4,0.8,0.6,1.4C99.4,346,99.4,346.5,99.4,347.1z M97.9,347.3c0-0.4,0-0.8-0.1-1.2c-0.1-0.4-0.2-0.7-0.3-1
			c-0.2-0.3-0.4-0.5-0.6-0.7c-0.3-0.2-0.6-0.3-1-0.3c-0.2,0-0.4,0-0.6,0.1c-0.2,0.1-0.4,0.1-0.6,0.3c-0.2,0.1-0.4,0.3-0.6,0.5
			c-0.2,0.2-0.4,0.4-0.7,0.7v3.2c0.4,0.5,0.8,0.9,1.2,1.1c0.4,0.3,0.7,0.4,1.1,0.4c0.4,0,0.7-0.1,1-0.3c0.3-0.2,0.5-0.4,0.6-0.7
			c0.2-0.3,0.3-0.6,0.4-1C97.9,348,97.9,347.6,97.9,347.3z"/>
		<path class="st8" d="M106.3,349c0,0.4-0.1,0.8-0.2,1.1c-0.2,0.3-0.4,0.6-0.6,0.8c-0.3,0.2-0.6,0.4-1,0.5c-0.4,0.1-0.8,0.2-1.3,0.2
			c-0.3,0-0.6,0-0.8-0.1c-0.3,0-0.5-0.1-0.7-0.2c-0.2-0.1-0.4-0.1-0.5-0.2s-0.2-0.1-0.3-0.2c-0.1-0.1-0.1-0.1-0.1-0.2
			c0-0.1,0-0.3,0-0.4c0-0.1,0-0.2,0-0.3c0-0.1,0-0.1,0-0.2c0,0,0-0.1,0.1-0.1c0,0,0.1,0,0.1,0c0.1,0,0.2,0,0.3,0.1
			c0.1,0.1,0.3,0.2,0.5,0.3c0.2,0.1,0.4,0.2,0.7,0.3c0.3,0.1,0.6,0.1,0.9,0.1c0.3,0,0.5,0,0.7-0.1c0.2-0.1,0.4-0.1,0.5-0.2
			c0.1-0.1,0.3-0.2,0.3-0.4c0.1-0.2,0.1-0.4,0.1-0.6c0-0.2-0.1-0.4-0.2-0.6c-0.1-0.2-0.3-0.3-0.5-0.4c-0.2-0.1-0.4-0.2-0.6-0.3
			c-0.2-0.1-0.5-0.2-0.7-0.3c-0.3-0.1-0.5-0.2-0.7-0.3c-0.2-0.1-0.5-0.3-0.6-0.5c-0.2-0.2-0.3-0.4-0.5-0.7c-0.1-0.3-0.2-0.6-0.2-0.9
			c0-0.3,0.1-0.6,0.2-0.9c0.1-0.3,0.3-0.5,0.5-0.8c0.2-0.2,0.5-0.4,0.9-0.5c0.4-0.1,0.8-0.2,1.3-0.2c0.2,0,0.4,0,0.6,0.1
			c0.2,0,0.4,0.1,0.6,0.1c0.2,0.1,0.3,0.1,0.4,0.2s0.2,0.1,0.3,0.2c0.1,0,0.1,0.1,0.1,0.1c0,0,0,0.1,0,0.1c0,0,0,0.1,0,0.2
			c0,0.1,0,0.1,0,0.2c0,0.1,0,0.2,0,0.3c0,0.1,0,0.1,0,0.2c0,0,0,0.1-0.1,0.1c0,0-0.1,0-0.1,0c-0.1,0-0.1,0-0.2-0.1
			c-0.1-0.1-0.2-0.1-0.4-0.2c-0.2-0.1-0.3-0.1-0.6-0.2c-0.2-0.1-0.5-0.1-0.7-0.1c-0.3,0-0.5,0-0.7,0.1c-0.2,0.1-0.3,0.1-0.5,0.2
			c-0.1,0.1-0.2,0.2-0.3,0.4c-0.1,0.1-0.1,0.3-0.1,0.5c0,0.2,0.1,0.4,0.2,0.6c0.1,0.2,0.3,0.3,0.5,0.4c0.2,0.1,0.4,0.2,0.7,0.3
			c0.2,0.1,0.5,0.2,0.7,0.3c0.3,0.1,0.5,0.2,0.7,0.3s0.5,0.3,0.7,0.5c0.2,0.2,0.3,0.4,0.5,0.6C106.2,348.4,106.3,348.7,106.3,349z"
			/>
		<path class="st8" d="M115,350.8c0,0.1,0,0.2,0,0.3c0,0.1,0,0.1-0.1,0.2c0,0-0.1,0.1-0.1,0.1c0,0-0.1,0-0.1,0h-6c0,0-0.1,0-0.1,0
			c0,0-0.1-0.1-0.1-0.1c0,0-0.1-0.1-0.1-0.2c0-0.1,0-0.2,0-0.3c0-0.1,0-0.2,0-0.3c0-0.1,0-0.1,0.1-0.2c0-0.1,0.1-0.1,0.1-0.1
			c0,0,0.1,0,0.1,0h2.4v-8.8l-2.2,1.3c-0.1,0.1-0.2,0.1-0.3,0.1c-0.1,0-0.1,0-0.2,0c0,0-0.1-0.1-0.1-0.2c0-0.1,0-0.2,0-0.3
			c0-0.1,0-0.2,0-0.3c0-0.1,0-0.1,0-0.2c0,0,0-0.1,0.1-0.1c0,0,0.1-0.1,0.1-0.1l2.7-1.7c0,0,0.1,0,0.1,0c0,0,0.1,0,0.1,0
			c0.1,0,0.1,0,0.2,0c0.1,0,0.2,0,0.3,0c0.1,0,0.3,0,0.4,0c0.1,0,0.2,0,0.2,0c0.1,0,0.1,0,0.1,0.1c0,0,0,0.1,0,0.1v10.1h2.1
			c0,0,0.1,0,0.1,0c0,0,0.1,0.1,0.1,0.1c0,0.1,0,0.1,0.1,0.2C115,350.6,115,350.7,115,350.8z"/>
		<path class="st8" d="M124.3,345.7c0,0.9-0.1,1.7-0.2,2.4c-0.1,0.7-0.4,1.4-0.7,1.9c-0.3,0.5-0.7,0.9-1.3,1.2
			c-0.5,0.3-1.2,0.4-1.9,0.4c-0.7,0-1.3-0.1-1.8-0.4c-0.5-0.3-0.9-0.6-1.2-1.1c-0.3-0.5-0.5-1.1-0.6-1.9c-0.1-0.7-0.2-1.6-0.2-2.5
			c0-0.9,0.1-1.7,0.2-2.4c0.1-0.7,0.4-1.4,0.7-1.9c0.3-0.5,0.7-0.9,1.3-1.2c0.5-0.3,1.2-0.4,1.9-0.4c0.7,0,1.3,0.1,1.8,0.4
			c0.5,0.3,0.9,0.6,1.2,1.1c0.3,0.5,0.5,1.1,0.6,1.9C124.2,343.9,124.3,344.7,124.3,345.7z M122.7,345.8c0-0.6,0-1.1-0.1-1.6
			c0-0.5-0.1-0.9-0.2-1.2c-0.1-0.4-0.2-0.7-0.3-0.9c-0.1-0.3-0.3-0.5-0.5-0.6c-0.2-0.2-0.4-0.3-0.6-0.4c-0.2-0.1-0.5-0.1-0.8-0.1
			c-0.5,0-0.9,0.1-1.2,0.4c-0.3,0.2-0.6,0.6-0.7,1c-0.2,0.4-0.3,0.9-0.4,1.5c-0.1,0.6-0.1,1.2-0.1,1.8c0,0.9,0,1.6,0.1,2.2
			c0.1,0.6,0.2,1.1,0.4,1.5c0.2,0.4,0.4,0.7,0.7,0.8c0.3,0.2,0.7,0.3,1.1,0.3c0.3,0,0.6-0.1,0.9-0.2c0.3-0.1,0.5-0.3,0.7-0.5
			c0.2-0.2,0.3-0.4,0.5-0.7c0.1-0.3,0.2-0.6,0.3-0.9c0.1-0.3,0.1-0.7,0.1-1.1C122.7,346.6,122.7,346.2,122.7,345.8z"/>
	</g>
</g>
<g class="st5">
	<path class="st9" d="M73.3,100.9c-1.1-1-1.7-2.3-1.7-3.9c0-1.5,0.6-2.8,1.7-3.9c1.1-1,2.5-1.5,4.1-1.5c1.6,0,3,0.5,4.1,1.5
		c1.1,1,1.7,2.2,1.7,3.7c0,1.6-0.5,2.9-1.6,4c-1.1,1.1-2.5,1.6-4.1,1.6C75.8,102.5,74.4,102,73.3,100.9z M72.9,108.8h9v38.4h-9
		V108.8z"/>
</g>
</svg>
